<svg xmlns="http://www.w3.org/2000/svg" xmlns:xlink="http://www.w3.org/1999/xlink" width="319.143" height="341.959" viewBox="0 0 319.143 341.959">
  <defs>
    <clipPath id="clip-path">
      <rect id="Rectángulo_17575" data-name="Rectángulo 17575" width="319.143" height="320.636" transform="translate(-73.637 479.032)" fill="none"/>
    </clipPath>
  </defs>
  <g id="Grupo_11957" data-name="Grupo 11957" transform="translate(-1256.718 -20)">
    <g id="Grupo_10453" data-name="Grupo 10453" transform="translate(1330.355 -448.78)" opacity="0.3">
      <g id="Grupo_10452" data-name="Grupo 10452">
        <g id="Grupo_11854" data-name="Grupo 11854">
          <g id="Grupo_11853" data-name="Grupo 11853" clip-path="url(#clip-path)">
            <g id="Grupo_10451" data-name="Grupo 10451">
              <path id="Trazado_29599" data-name="Trazado 29599" d="M208.513,754.566a115.388,115.388,0,0,1-17.653,14.863C133.272,810.749,65.131,798.7,50.649,795.763c-21.385-4.343-62.723-12.739-92.609-47.885-45.215-53.172-38.174-136.943-3.1-192.242,6.415-10.115,40.3-66.256,109.178-75.259,41.683-5.448,90.271,5.54,125.458,35.02,73.86,61.88,68.6,186.888,18.94,239.17" fill="#fff"/>
            </g>
          </g>
        </g>
      </g>
    </g>
    <g id="Grupo_11956" data-name="Grupo 11956" transform="translate(1371.463 -165.834)">
      <g id="Grupo_11955" data-name="Grupo 11955" transform="translate(-101.872 185.834)">
        <g id="Grupo_11941" data-name="Grupo 11941" transform="translate(156.216)">
          <path id="Trazado_36115" data-name="Trazado 36115" d="M43.277,267.784c1.981-.236,3.568-.595,4-2.7.8-3.89.487-13.488,2.987-25.016,1.5-6.933,1.037-23.347-10.581-20.967-6.75,1.381-4.918,9.614-3.875,17.766.939,7.344-.249,15.475.848,22.677C37.246,263.432,38.894,268.306,43.277,267.784Z" transform="translate(-26.435 -179.087)" fill="#c7c1c1" fill-rule="evenodd"/>
          <g id="Grupo_11940" data-name="Grupo 11940">
            <g id="Grupo_11906" data-name="Grupo 11906" transform="translate(22.018 106.072)">
              <g id="Grupo_11904" data-name="Grupo 11904" transform="translate(0 1.793)">
                <path id="Trazado_36116" data-name="Trazado 36116" d="M70.3,281.694c2.081,6.505.084,17.306-1.664,28.593-.962,6.208-2.508,12.609-3.256,18.081q-.179,1.311-.331,2.494a54.3,54.3,0,0,0-.673,10.547c.56,7.151,3.568,8.662,4.7,17.982,1.367,11.309-4.581,24.274-4.137,36.737a7.8,7.8,0,0,0,1.49,3.06c4.993,6.141-.153,5.33.326,13.438.042.713-2.716,13.085-2.716,13.085s-7.412,2.062-7.971,1.982-5.159-1.68-5.159-1.68c.361-.677.814-2.315,1.106-2.934,3.338-7.082,3.785-15.759,3.791-23.75.008-10.931-3.007-36.671-5.823-47.178a136.815,136.815,0,0,1-2.251-18.576c-1.154-18.163-1.739-31.259.507-50.476Z" transform="translate(-46.015 -274.119)" fill="#f1b287" fill-rule="evenodd"/>
                <path id="Trazado_36117" data-name="Trazado 36117" d="M52.667,400.858c-.8,1.462-1.656,3.561-2.389,5.142a32.2,32.2,0,0,0-1.87,4.982,2.34,2.34,0,0,0,.17,2c1.79,2.4,10.758-1.979,13.765-4.634,1.942-1.714,1.977-3.742,2.434-6.219.685-3.718.8-4.135,1.693-7.955l1.009,10.37,1.21.554c.184-4.223.273-9.846.926-13.459.261-1.439.7-3.079.767-3.875a8.224,8.224,0,0,0-4.09-8.327c.785,2.855-1.286,7.5-2.227,13.347-.985,6.119-4.374,12.808-7.036,13.376-1.122.237-3.6-1.162-4.953-1.932C51.562,403.937,52.144,402.184,52.667,400.858Z" transform="translate(-45.695 -254.155)" fill="#333647" fill-rule="evenodd"/>
                <path id="Trazado_36118" data-name="Trazado 36118" d="M50.624,413.641c3.422-.364,8.991-3.309,11.237-5.291,1.942-1.714,1.977-3.742,2.434-6.219.685-3.718.8-4.135,1.693-7.955L67,404.545l1.21.554c.184-4.223.273-9.846.926-13.459.261-1.439.7-3.079.767-3.875a8.224,8.224,0,0,0-4.09-8.327c.785,2.855-1.286,7.5-2.227,13.347-.81,5.035-3.249,10.457-5.572,12.535A42.013,42.013,0,0,1,50.624,413.641Z" transform="translate(-45.214 -254.155)" fill-rule="evenodd"/>
                <path id="Trazado_36119" data-name="Trazado 36119" d="M68.594,280.394c1.792,6.87,7.547,7.083,5.1,18.53-2.443,11.412-9.385,33.4-8.561,43.943.56,7.152,2.928,8.488,4.055,17.807,1.366,11.309-1.55,27.656-1.105,40.119.365,1.862-4.17,10.49-12.981,7.749-1.391-10.931-3.356-47.834-6.289-59.508-2.165-6.463-1.555-9.606-2.069-16.048-1.165-14.569-.34-28.694-.142-41.823.49-5.08.112-11.331.842-15.76Z" transform="translate(-46.131 -275.404)" fill="#730220" fill-rule="evenodd"/>
                <path id="Trazado_36120" data-name="Trazado 36120" d="M59.266,302.045c-1.355,4.546-4.83,35.728-5.572,36.458-1.249,1.228-3.958,1.965-5.458-2.6-.521-1.587-1.268-39.1-1.154-42.25C51.717,297.573,55.674,300.808,59.266,302.045Z" transform="translate(-45.939 -271.677)" fill="#841235" fill-rule="evenodd"/>
                <path id="Trazado_36121" data-name="Trazado 36121" d="M48.485,335.718l6.18,2.215c6,18.725,5.85,34,4.488,58.123-1.228.163-3.177.2-4.256-.642-.033-10.531-1.326-18.3-1.716-27.863-.2-4.943-.739-9.965-1.2-15.277C51.211,343.369,51.906,345.3,48.485,335.718Z" transform="translate(-45.651 -263.085)" fill="#841235" fill-rule="evenodd"/>
              </g>
              <g id="Grupo_11905" data-name="Grupo 11905" transform="translate(0.895)">
                <path id="Trazado_36122" data-name="Trazado 36122" d="M84.562,311.5c-1.8,17.619-4.632,24.509-3.893,31.779.487,4.8,4.762,11.755,5.664,16.348,2,10.2-2.463,26.767-3.986,41.418-.152,1.456.52,2.928.69,4.379a50.931,50.931,0,0,1,.477,7.749,68.984,68.984,0,0,1-1.726,13.93c-.444,1.938-1.308,2.769-1.889,5.423l-11.426,1.865c.637-2.453,1.6-6.3,2.375-10.537.59-3.227,1.006-6.692,1.466-9.868.576-3.982,1.444-7.554,1.493-9.788.308-14.145-2.534-19.562-4.3-34.3-.727-6.089.264-9.492-2.006-14.282a73.113,73.113,0,0,1-2.9-7.5,30.65,30.65,0,0,1-1.463-10.378c.25-5.723.953-14.155,2.536-25.541l18.655-2.331Z" transform="translate(-43.557 -266.572)" fill="#f1b287" fill-rule="evenodd"/>
                <path id="Trazado_36123" data-name="Trazado 36123" d="M82.153,388.581c.661,2.293,1.417,3.516,1.516,6.646s-1.345,8.019-1.224,11.893l.191,6.148c.112,3.581-.8,6.066-4.866,9.027-3.689,2.683-7.28,3.781-9.234,2.829-1.439-.7-2.588-3.236-.382-9.923,1.836-5.571,2.309-11.015,3.389-17.059a60.832,60.832,0,0,1-1.955,13.744c-.4,1.626-.638,4.346,1.292,4.622,7.983,1.142,8.385-1.006,9.044-3.468C81.684,406.459,82.971,394.752,82.153,388.581Z" transform="translate(-42.78 -250.494)" fill="#333647" fill-rule="evenodd"/>
                <path id="Trazado_36124" data-name="Trazado 36124" d="M81.609,388.581c.661,2.293,1.417,3.516,1.516,6.646s-1.345,8.019-1.224,11.893l.191,6.148c.112,3.581-.8,6.066-4.866,9.027-2.837,2.064-5.617,3.19-7.639,3.166,2.147-1.792,3.691-4.84,4.822-8.642,4.088-.079,4.45-1.83,4.971-3.78C81.139,406.459,82.427,394.752,81.609,388.581Z" transform="translate(-42.236 -250.494)" fill-rule="evenodd"/>
                <path id="Trazado_36125" data-name="Trazado 36125" d="M92.227,292.824c1.7,6.5.284,16.572-2.132,27.858-1.328,6.208-3.254,12.609-4.324,18.081a56.051,56.051,0,0,0-1.121,10.384c-.078,6.28,3.928,11.768,5.117,17.823,2,10.2-.6,33.18-2.121,47.831,1.4,4.109-7.943,10.752-13.9,5.951.308-14.145.848-28.773-.914-43.51-.727-6.089.264-9.493-2.006-14.282a67.77,67.77,0,0,1-3.107-7.557c-.2-.586-.37-1.181-.515-1.777-.63-1.557-1.494-4.774-1.131-10.488L67.234,303.5c-6.947-7.168-14.63-14.528-20.359-23.311l.414-4.476,30.069-1.793C82.263,276.33,90.915,287.784,92.227,292.824Z" transform="translate(-46.875 -273.915)" fill="#841235" fill-rule="evenodd"/>
                <path id="Trazado_36126" data-name="Trazado 36126" d="M89.541,294.574c.13,6.033-1.1,13.635-2.867,21.889-1.328,6.208-3.254,12.609-4.324,18.081a56.051,56.051,0,0,0-1.121,10.384c-.078,6.28,3.928,11.768,5.117,17.823,2,10.2-.6,33.18-2.121,47.831.9,2.62-2.582,6.271-6.764,7.327,2.057-25.866,3.38-44.038-2.975-63.688-.851-3.272-1.663-4.976-1.333-8.359,1.242-12.664,3.657-23.027,6.428-35.725-6.551-.777-9.685-1.841-15.954-4.539l.185-6.321Z" transform="translate(-43.453 -269.695)" fill="#730220" fill-rule="evenodd"/>
              </g>
            </g>
            <g id="Grupo_11939" data-name="Grupo 11939">
              <g id="Grupo_11907" data-name="Grupo 11907" transform="translate(3.716 8.025)">
                <path id="Trazado_36127" data-name="Trazado 36127" d="M57.405,192.5c10.37,18.218,13.743,34.76,16.179,49.7,0,0-24.218-18.058-24.681-18.361s-2.554-9.247-2.554-9.247l6.887-10.758Z" transform="translate(-27.785 -192.498)" fill="#241304" fill-rule="evenodd"/>
                <path id="Trazado_36128" data-name="Trazado 36128" d="M32.481,255.375c13.331-4.476,17.106-35.127,16.39-41.593l-11.819,3.184C35.7,227.842,27.6,248.9,32.481,255.375Z" transform="translate(-30.934 -188.151)" fill="#241304" fill-rule="evenodd"/>
              </g>
              <path id="Trazado_36129" data-name="Trazado 36129" d="M77,263.873c-1.619,7.151-1.373,14.671.584,17.829,2.158,3.48,16.391,11.451,17.984,26.154-.572,5.134-4.756,9.232-11.013,10.776-6.676,1.647-32.528-4.624-38.288-9.364-.271-13.323-.145-18.387-1.762-31.026-.727-5.689-3.984-9.317-4.962-15.777-.261-1.73-.521-3.479-.777-5.228-.861-5.914-1.662-11.826-2.266-17.032-.779-6.711-1.382-12.446-1.193-15.269a8.121,8.121,0,0,1,.618-2.906c1.108-2.887,3.887-4.9,9.828-3.987,8.236,1.268,20.578,3.258,28.514,8.364,3.313,1.033,5.933,2.594,7.133,6.3C84.1,241.04,78.869,255.61,77,263.873Z" transform="translate(-26.332 -179.301)" fill="#e8e3e3" fill-rule="evenodd"/>
              <path id="Trazado_36130" data-name="Trazado 36130" d="M85.061,310.623q-.607.191-1.244.349c-6.676,1.647-32.528-4.624-38.288-9.364-.271-13.323-.145-18.387-1.762-31.026-.708-5.535-3.809-9.12-4.877-15.259a14.706,14.706,0,0,0,6.711.956c4.288,2.7,5.087,4.813,10.759,5.46,2.3.261,4.949.383,6.094,1.144,4.909,3.267,2.976,6.976,4.114,12.448C69.536,289.611,80.289,297.35,85.061,310.623Z" transform="translate(-25.593 -171.641)" fill="#f6f5f5" fill-rule="evenodd"/>
              <path id="Trazado_36131" data-name="Trazado 36131" d="M76.7,263.873c-1.619,7.151-1.373,14.671.584,17.829,2.158,3.48,16.391,11.451,17.984,26.154-.42,3.779-2.8,7-6.521,9.048-3.18-12.451-15.591-19.368-18.826-34.933-1.138-5.473.43-10.129-4.479-13.395-1.145-.762-3.8-.883-6.094-1.145-5.672-.647-8.584-2.755-12.873-5.46-2.934.149-4.255-.317-7.419-.912-.022-.087-.042-.175-.063-.261q-.266-1.776-.526-3.561L38.284,256q-.051-.739-.073-1.482c-.155-5.082,22.758,5.083,29.452-11.1a26.014,26.014,0,0,1,3.084-13.831c-10.776-7.377-24.311-9.478-33.98-9.5,1.525-1.757,4.205-2.732,8.681-2.042a148.312,148.312,0,0,1,14.735,2.87,76.972,76.972,0,0,1,15.483,5.721c5.636,2.918,6.945,8.065,6.133,13.421C81.353,248.032,78.09,257.709,76.7,263.873Z" transform="translate(-26.026 -179.301)" fill="#dbd4d4" fill-rule="evenodd"/>
              <path id="Trazado_36132" data-name="Trazado 36132" d="M71.832,256.062c-1.619,7.151-1.373,14.671.584,17.829-.886,2.027-3.16,3.725-6.1,4.8a34.844,34.844,0,0,1-1.263-4.529c-1.138-5.473.43-10.129-4.479-13.395Z" transform="translate(-21.164 -171.49)" fill="#c7c1c1" fill-rule="evenodd"/>
              <path id="Trazado_36133" data-name="Trazado 36133" d="M58.632,261.985c8.252,2.164,13.659-4.109,12.044-12.1-1.685-8.33-1.647-13.041,1.376-20.834a37.942,37.942,0,0,1-8.214-2.829,21.106,21.106,0,0,1-2.056,9.24c-3.885,8.657-18.948,5.173-17.571-5.006a29.366,29.366,0,0,1,3.072-8.744l-7.017-1.684c-1.5,1.034-3.482,6.663-4.371,10.591a61.619,61.619,0,0,1-2.5,8.319,13.286,13.286,0,0,0,.531,10.967c1.942,3.795,5.367,5.214,9.052,6.127a17.426,17.426,0,0,0,4.554.476C51.578,258.7,53.855,260.731,58.632,261.985Z" transform="translate(-26.905 -178.85)" fill="#e8e3e3" fill-rule="evenodd"/>
              <path id="Trazado_36134" data-name="Trazado 36134" d="M58.007,260.418c7.72,2.026,12.781-3.844,11.269-11.32C67.7,241.3,67.735,236.9,70.564,229.6a35.586,35.586,0,0,1-7.687-2.647,19.743,19.743,0,0,1-1.923,8.645c-3.634,8.1-17.729,4.841-16.44-4.683a27.421,27.421,0,0,1,2.875-8.183l-6.567-1.575c-1.4.968-3.258,6.236-4.09,9.911a57.769,57.769,0,0,1-2.339,7.784,12.433,12.433,0,0,0,.5,10.263c1.818,3.55,5.023,4.878,8.472,5.733a16.306,16.306,0,0,0,4.261.444C51.406,257.346,53.537,259.246,58.007,260.418Z" transform="translate(-26.69 -178.619)" fill="#f6f5f5" fill-rule="evenodd"/>
              <g id="Grupo_11938" data-name="Grupo 11938">
                <g id="Grupo_11935" data-name="Grupo 11935" transform="translate(0 2.701)">
                  <path id="Trazado_36135" data-name="Trazado 36135" d="M36.764,213.474l5.688-4.548-3.734-10.552-5.885-7.193C25.19,197.321,31.505,213.31,36.764,213.474Z" transform="translate(-27.554 -187.443)" fill="#361d07" fill-rule="evenodd"/>
                  <g id="Grupo_11934" data-name="Grupo 11934">
                    <g id="Grupo_11908" data-name="Grupo 11908" transform="translate(12.758 17.863)">
                      <path id="Trazado_36136" data-name="Trazado 36136" d="M60.155,223.683c1.7,6.637-9.39,10.766-14.158,8.657-.629-1.871-3.565-10.242-7.14-15.317l13.414-9.4,2.8-1.378C54.275,214.026,56.679,217.579,60.155,223.683Z" transform="translate(-38.357 -202.229)" fill="#e8a476" fill-rule="evenodd"/>
                      <path id="Trazado_36137" data-name="Trazado 36137" d="M51.923,229.073a10.605,10.605,0,0,1-6.711-.028c-.318-.948-1.227-3.559-2.511-6.564C48.156,221.566,51.5,226.867,51.923,229.073Z" transform="translate(-37.572 -198.934)" fill="#f1b287" fill-rule="evenodd"/>
                      <path id="Trazado_36138" data-name="Trazado 36138" d="M60.221,224.218a1.1,1.1,0,0,1,.055.257c-5.966-4.017-12.58.178-17.559.066-.207-.338-.862-1.887-1.04-2.165-.619-1.2-2.417-4.022-3.235-5.56L52.51,204.98l3.388-2.07C54.477,212.8,56.744,218.114,60.221,224.218Z" transform="translate(-38.442 -202.91)" fill="#db9669" fill-rule="evenodd"/>
                    </g>
                    <g id="Grupo_11933" data-name="Grupo 11933">
                      <path id="Trazado_36139" data-name="Trazado 36139" d="M43.276,226.573c7.576-3.795,9.62-7.842,10.924-15.937,3.262-2.511,4.6-4.516,4.828-6.673.53-5.118-2.564-10.5-6.56-13.366a13.525,13.525,0,0,0-11.792-1.98c-8.477,2.171-11.31,7.864-11.5,15.268a22.08,22.08,0,0,0,1.461,5.807c.863,2.348-.307,1.765-.048,4.206a41.594,41.594,0,0,0,2.869,8.879c1.015,2.337,1.3,4.793,2.555,5.1C37.283,228.193,39.816,228.305,43.276,226.573Z" transform="translate(-27.577 -188.077)" fill="#f1b287" fill-rule="evenodd"/>
                      <path id="Trazado_36140" data-name="Trazado 36140" d="M43.208,226.573c7.594-3.8,9.62-7.842,10.924-15.937,3.262-2.511,4.6-4.516,4.827-6.673.531-5.118-2.563-10.5-6.558-13.366a13.525,13.525,0,0,0-11.792-1.98c-6.126,1.569-10.466,6.791-11.1,11.322a44.569,44.569,0,0,0,10.583,1.333c3.714,1.215,1.67,3.609,2.829,5.86.927,1.8,2.221,2.109,2.606,3.453.809,2.824-2.511,3.256-2.472,4.622.04,1.4,3.543,1.319,3.076,5.131-.131,1.068-2.3,5.118-3.409,6.433C42.88,226.708,43.047,226.653,43.208,226.573Z" transform="translate(-27.509 -188.077)" fill="#e8a476" fill-rule="evenodd"/>
                      <path id="Trazado_36141" data-name="Trazado 36141" d="M29.306,203.428a4.611,4.611,0,0,0,1.006,2.17,15.213,15.213,0,0,1,.749,1.969,2.822,2.822,0,0,1-.36,1.463,4.03,4.03,0,0,0-.063,2.5c.1.418.238.943.407,1.493.175.571.375,1.167.559,1.7l-.017-.007c.112.272.368,1.06.56,1.5.242-.145.978.146,1.263.265s.442.293.624.312c.229.025.4-.118.706-.247.478-.2.714.159,1.242-.159.462-.279,2.206-.906,1.219-1.746-.938,1.246-1.657.322-2.417.562a4.871,4.871,0,0,1-2.118-.136c1.626-1.437,1.845-3.889,1.917-5.855a4.2,4.2,0,0,0-1.72-3.5C31.707,204.823,30.237,204.446,29.306,203.428Z" transform="translate(-27.55 -184.942)" fill="#e8a476" fill-rule="evenodd"/>
                      <g id="Grupo_11909" data-name="Grupo 11909" transform="translate(5.582 32.388)">
                        <path id="Trazado_36142" data-name="Trazado 36142" d="M36.914,215.434l2.472.762c.477.088.882-.426,1.115-.147.166.2-.018.358-.336.456a6.144,6.144,0,0,0-1.349.8c-2.64,1.585-4.475,4.1-5.784-.765-.167-.636-.125-.832.507-.717l.836.289,1.776-.313Z" transform="translate(-32.388 -214.877)" fill="#e8a476" fill-rule="evenodd"/>
                        <path id="Trazado_36143" data-name="Trazado 36143" d="M39.643,216.6c-1.452.738-2.924,2.181-4.7,1.987a1.912,1.912,0,0,1-1.616-1.222c-.417-.975-.219-1.309.148-1.348a6.652,6.652,0,0,1,1.444.326C37.848,215.72,36.559,215.6,39.643,216.6Z" transform="translate(-32.359 -214.79)" fill="#e89471" fill-rule="evenodd"/>
                        <path id="Trazado_36144" data-name="Trazado 36144" d="M36.641,217.49a2.85,2.85,0,0,1-1.733.459,2.294,2.294,0,0,1-1.5-.794c-.372-.619-.226-.91.023-.851.2.047.391.436.9.547a10.982,10.982,0,0,1,1.922-.279c.13,0,.967.093,1.06.325C37.392,217.1,36.746,217.437,36.641,217.49Z" transform="translate(-32.34 -214.701)" fill="#eda288" fill-rule="evenodd"/>
                        <path id="Trazado_36145" data-name="Trazado 36145" d="M39.626,216.478c-1.452.738-2.924,2.181-4.7,1.987a1.912,1.912,0,0,1-1.616-1.222c-.057-.132-.1-.254-.137-.364.81,1.519,2.229,1.448,3.9.7C37.842,217.239,38.552,216.921,39.626,216.478Z" transform="translate(-32.342 -214.664)" fill="#de8660" fill-rule="evenodd"/>
                        <path id="Trazado_36146" data-name="Trazado 36146" d="M32.831,214.981c.289-.073.7.3,1.19.795a2.623,2.623,0,0,1,2.251-.512,34.653,34.653,0,0,0,3.357,1.015,3.341,3.341,0,0,0,.6.083,6.348,6.348,0,0,1-.753.354c-1.1.336-1.791-.007-3.308-.072a7.611,7.611,0,0,0-1.307.22.886.886,0,0,1-.428.048c-.178-.046-.851-.5-1.14-.656a2.327,2.327,0,0,1-.574-.411C32.419,215.535,32.353,215.1,32.831,214.981Z" transform="translate(-32.483 -214.971)" fill="#e89471" fill-rule="evenodd"/>
                        <path id="Trazado_36147" data-name="Trazado 36147" d="M32.821,214.981c.289-.073.7.3,1.19.795a2.623,2.623,0,0,1,2.251-.512c.585.171,1.457.508,2.371.772-1.36-.225-2.37-.446-2.481-.45a3.59,3.59,0,0,0-2.11.443c-.409-.073-1.032-.957-1.509-.872A.475.475,0,0,1,32.821,214.981Z" transform="translate(-32.473 -214.971)" fill="#eda288" fill-rule="evenodd"/>
                        <path id="Trazado_36148" data-name="Trazado 36148" d="M34.7,216.236a2.168,2.168,0,0,1,1.517-.071c2.282.49,2.994.383,4,.088a6.348,6.348,0,0,1-.753.354c-1.1.336-1.791-.007-3.308-.072a7.611,7.611,0,0,0-1.307.22.886.886,0,0,1-.428.048c-.178-.046-.851-.5-1.14-.656a2.327,2.327,0,0,1-.574-.411.975.975,0,0,1-.169-.232,6.084,6.084,0,0,1,1.339.631C34.314,216.453,34.2,216.473,34.7,216.236Z" transform="translate(-32.472 -214.863)" fill="#de8660" fill-rule="evenodd"/>
                      </g>
                      <path id="Trazado_36149" data-name="Trazado 36149" d="M44.407,205.579c-.779-.273-1.543-.6-2.339-.821a2.865,2.865,0,0,0-1.657-.152,11.61,11.61,0,0,0-2.988.647,8.771,8.771,0,0,1-1.891.547c.083.6.176.919.383,1.036a22.65,22.65,0,0,0,4.092-1.386c1.193-.462,1.217-.461,2.142-.254A14.965,14.965,0,0,0,44.407,205.579Z" transform="translate(-26.279 -184.712)" fill="#572f0c" fill-rule="evenodd"/>
                      <path id="Trazado_36150" data-name="Trazado 36150" d="M42.5,207.1a4.438,4.438,0,0,1-2.51,1.674,3.166,3.166,0,0,1-2-.3c-.42-.2-.835-.44-1.243-.664a10.262,10.262,0,0,0,3.191.3C40.879,207.959,42.282,207.034,42.5,207.1Z" transform="translate(-26.03 -184.193)" fill="#ded5d5" fill-rule="evenodd"/>
                      <g id="Grupo_11910" data-name="Grupo 11910" transform="translate(12.106 23.702)">
                        <path id="Trazado_36151" data-name="Trazado 36151" d="M37.9,207.759a1.1,1.1,0,0,0,1.069.791c.67.075,1.433-.17,1.46-.714A6.219,6.219,0,0,1,37.9,207.759Z" transform="translate(-37.901 -207.759)" fill="#031d30" fill-rule="evenodd"/>
                        <path id="Trazado_36152" data-name="Trazado 36152" d="M38.049,207.933a1.87,1.87,0,0,0,1.1.334A.892.892,0,0,1,38.049,207.933Z" transform="translate(-37.871 -207.723)" fill="#ded5d5" fill-rule="evenodd"/>
                      </g>
                      <path id="Trazado_36153" data-name="Trazado 36153" d="M42.5,207.1a4.438,4.438,0,0,1-2.51,1.674,3.166,3.166,0,0,1-2-.3c-.42-.2-.835-.44-1.243-.664a4.978,4.978,0,0,1,1.278.5,2.831,2.831,0,0,0,1.942.277A5.085,5.085,0,0,0,42.5,207.1Z" transform="translate(-26.03 -184.192)" fill-rule="evenodd"/>
                      <g id="Grupo_11920" data-name="Grupo 11920" transform="translate(10.182 21.802)">
                        <path id="Trazado_36154" data-name="Trazado 36154" d="M36.939,207.3c.853-.521,1.179-.755,3.168-.5.82.106.974.644.022.886a3.671,3.671,0,0,1-1.59.071,4.987,4.987,0,0,0-1.28-.111C36.477,207.7,35.807,207.993,36.939,207.3Z" transform="translate(-36.296 -206.075)" fill="#f5bc95" fill-rule="evenodd"/>
                        <path id="Trazado_36155" data-name="Trazado 36155" d="M38.888,206.623c1.791.25,4.113-.768,4.265-.332.078.22-.155.624-1.048,1.221-2.474,1.048-2.5.848-5.173.358a17.013,17.013,0,0,0,2.919.083c.9-.152,1.763-.684,1.732-1.024C41.559,206.658,40.775,207.058,38.888,206.623Z" transform="translate(-36.175 -206.181)" fill="#c48c69" fill-rule="evenodd"/>
                        <path id="Trazado_36156" data-name="Trazado 36156" d="M42.895,206.262c.353.526-1.423,1.427-1.869,1.6a4.319,4.319,0,0,1-3.027.226,8.486,8.486,0,0,0,1.758-.017c.9-.153,2.436-.8,2.352-1.393-.026-.19-.613.045-1.764.03C41.439,206.685,42.7,205.977,42.895,206.262Z" transform="translate(-35.957 -206.178)" fill="#996c50" fill-rule="evenodd"/>
                        <path id="Trazado_36157" data-name="Trazado 36157" d="M36.3,207.861c.466-.269.974-.055,2.03.046a6.141,6.141,0,0,0,3.471-.467A12.173,12.173,0,0,0,43,206.8c-1.26,1.08-2.522,1.933-4.5,1.475A7.464,7.464,0,0,0,36.3,207.861Z" transform="translate(-36.303 -206.055)" fill="#785a46" fill-rule="evenodd"/>
                        <g id="Grupo_11919" data-name="Grupo 11919" transform="translate(0.446 0.725)">
                          <path id="Trazado_36158" data-name="Trazado 36158" d="M42.919,206.8c-1.26,1.08-2.522,1.933-4.5,1.475a13.341,13.341,0,0,0-1.746-.4c.423-.024,1.386.265,2.319.352A5.646,5.646,0,0,0,42.919,206.8Z" transform="translate(-36.673 -206.781)" fill-rule="evenodd"/>
                          <g id="Grupo_11918" data-name="Grupo 11918" transform="translate(0.177)">
                            <path id="Trazado_36159" data-name="Trazado 36159" d="M41.538,207.155a1.949,1.949,0,0,0,1.419-.372c-.354.44-.683.637-1.67.56C41.308,207.326,41.527,207.155,41.538,207.155Z" transform="translate(-35.908 -206.783)" fill-rule="evenodd"/>
                            <path id="Trazado_36160" data-name="Trazado 36160" d="M41.267,207.285a2.439,2.439,0,0,0,1.181-.035,1.718,1.718,0,0,1-1.286.108C41.18,207.351,41.264,207.285,41.267,207.285Z" transform="translate(-35.933 -206.688)" fill-rule="evenodd"/>
                            <path id="Trazado_36161" data-name="Trazado 36161" d="M41.1,207.4a2.125,2.125,0,0,0,1.273.073,1.714,1.714,0,0,1-1.422.059Z" transform="translate(-35.977 -206.658)" fill-rule="evenodd"/>
                            <path id="Trazado_36162" data-name="Trazado 36162" d="M40.82,207.593a2.043,2.043,0,0,0,1.031.344,1.627,1.627,0,0,1-1.189-.254Z" transform="translate(-36.035 -206.618)" fill-rule="evenodd"/>
                            <path id="Trazado_36163" data-name="Trazado 36163" d="M40.911,207.525a2.063,2.063,0,0,0,.9.241,1.48,1.48,0,0,1-.984-.193Z" transform="translate(-36.001 -206.631)" fill-rule="evenodd"/>
                            <path id="Trazado_36164" data-name="Trazado 36164" d="M40.509,207.766a2,2,0,0,0,.912.459,1.605,1.605,0,0,1-1.068-.384C40.4,207.817,40.457,207.791,40.509,207.766Z" transform="translate(-36.099 -206.582)" fill-rule="evenodd"/>
                            <path id="Trazado_36165" data-name="Trazado 36165" d="M40.617,207.7a2.011,2.011,0,0,0,.792.373,1.443,1.443,0,0,1-.871-.331Z" transform="translate(-36.06 -206.595)" fill-rule="evenodd"/>
                            <path id="Trazado_36166" data-name="Trazado 36166" d="M40.254,207.881a2,2,0,0,0,.759.683,1.529,1.529,0,0,1-.908-.635C40.162,207.92,40.2,207.893,40.254,207.881Z" transform="translate(-36.149 -206.559)" fill-rule="evenodd"/>
                            <path id="Trazado_36167" data-name="Trazado 36167" d="M40.338,207.84a1.955,1.955,0,0,0,.647.5,1.413,1.413,0,0,1-.725-.464Z" transform="translate(-36.117 -206.567)" fill-rule="evenodd"/>
                            <path id="Trazado_36168" data-name="Trazado 36168" d="M40.031,207.967a1.732,1.732,0,0,1,.269.883,4.5,4.5,0,0,0-.442-.835C39.916,208.009,39.974,207.974,40.031,207.967Z" transform="translate(-36.199 -206.541)" fill-rule="evenodd"/>
                            <path id="Trazado_36169" data-name="Trazado 36169" d="M40.1,207.932a2.05,2.05,0,0,1,.348.762,4.314,4.314,0,0,0-.429-.736C40.079,207.954,40.045,207.939,40.1,207.932Z" transform="translate(-36.166 -206.548)" fill-rule="evenodd"/>
                            <path id="Trazado_36170" data-name="Trazado 36170" d="M39.754,208.038a1.614,1.614,0,0,1,.071.927,2.5,2.5,0,0,0-.255-.889A1.863,1.863,0,0,0,39.754,208.038Z" transform="translate(-36.258 -206.527)" fill-rule="evenodd"/>
                            <path id="Trazado_36171" data-name="Trazado 36171" d="M39.764,208.032a1.925,1.925,0,0,1,.188.785,1.369,1.369,0,0,0-.106-.8A.217.217,0,0,0,39.764,208.032Z" transform="translate(-36.219 -206.531)" fill-rule="evenodd"/>
                            <path id="Trazado_36172" data-name="Trazado 36172" d="M39.474,208.086a1.2,1.2,0,0,1-.116.922,1.624,1.624,0,0,0-.054-.9Z" transform="translate(-36.313 -206.517)" fill-rule="evenodd"/>
                            <path id="Trazado_36173" data-name="Trazado 36173" d="M39.562,208.074a1.124,1.124,0,0,1-.016.835,1.715,1.715,0,0,0-.066-.819Z" transform="translate(-36.277 -206.519)" fill-rule="evenodd"/>
                            <g id="Grupo_11917" data-name="Grupo 11917" transform="translate(0 1.169)">
                              <path id="Trazado_36174" data-name="Trazado 36174" d="M39.188,208.121a1.132,1.132,0,0,1-.2.853,1.628,1.628,0,0,0,.042-.849Q39.106,208.125,39.188,208.121Z" transform="translate(-36.378 -207.679)" fill-rule="evenodd"/>
                              <path id="Trazado_36175" data-name="Trazado 36175" d="M39.292,208.114a1,1,0,0,1-.16.8,1.383,1.383,0,0,0,.071-.8Z" transform="translate(-36.348 -207.68)" fill-rule="evenodd"/>
                              <path id="Trazado_36176" data-name="Trazado 36176" d="M38.94,208.124a1.077,1.077,0,0,1-.273.777,1.632,1.632,0,0,0,.12-.784C38.839,208.121,38.89,208.123,38.94,208.124Z" transform="translate(-36.443 -207.68)" fill-rule="evenodd"/>
                              <path id="Trazado_36177" data-name="Trazado 36177" d="M39.013,208.125a.95.95,0,0,1-.167.731,1.4,1.4,0,0,0,.082-.732Z" transform="translate(-36.406 -207.678)" fill-rule="evenodd"/>
                              <g id="Grupo_11911" data-name="Grupo 11911" transform="translate(1.782 0.403)">
                                <path id="Trazado_36178" data-name="Trazado 36178" d="M38.688,208.108a1.079,1.079,0,0,1-.388.738,1.62,1.62,0,0,0,.236-.757Z" transform="translate(-38.3 -208.089)" fill-rule="evenodd"/>
                                <path id="Trazado_36179" data-name="Trazado 36179" d="M38.758,208.114a.964.964,0,0,1-.275.718,1.4,1.4,0,0,0,.189-.726Z" transform="translate(-38.263 -208.086)" fill-rule="evenodd"/>
                              </g>
                              <g id="Grupo_11912" data-name="Grupo 11912" transform="translate(1.411 0.349)">
                                <path id="Trazado_36180" data-name="Trazado 36180" d="M38.423,208.07a1.011,1.011,0,0,1-.431.641,1.593,1.593,0,0,0,.289-.667C38.329,208.054,38.376,208.063,38.423,208.07Z" transform="translate(-37.992 -208.044)" fill-rule="evenodd"/>
                                <path id="Trazado_36181" data-name="Trazado 36181" d="M38.5,208.084a.922.922,0,0,1-.328.631,1.405,1.405,0,0,0,.246-.644Z" transform="translate(-37.955 -208.038)" fill-rule="evenodd"/>
                              </g>
                              <g id="Grupo_11913" data-name="Grupo 11913" transform="translate(1.053 0.272)">
                                <path id="Trazado_36182" data-name="Trazado 36182" d="M38.156,208.015a1,1,0,0,1-.462.6,1.613,1.613,0,0,0,.324-.636C38.064,207.992,38.109,208,38.156,208.015Z" transform="translate(-37.694 -207.98)" fill-rule="evenodd"/>
                                <path id="Trazado_36183" data-name="Trazado 36183" d="M38.236,208.034a.9.9,0,0,1-.36.595,1.376,1.376,0,0,0,.279-.613l.018,0Z" transform="translate(-37.657 -207.973)" fill-rule="evenodd"/>
                              </g>
                              <g id="Grupo_11914" data-name="Grupo 11914" transform="translate(0.706 0.185)">
                                <path id="Trazado_36184" data-name="Trazado 36184" d="M37.884,207.944a.92.92,0,0,1-.478.49,1.579,1.579,0,0,0,.348-.526Z" transform="translate(-37.406 -207.908)" fill-rule="evenodd"/>
                                <path id="Trazado_36185" data-name="Trazado 36185" d="M37.973,207.969a.842.842,0,0,1-.387.5,1.355,1.355,0,0,0,.311-.517Z" transform="translate(-37.369 -207.9)" fill-rule="evenodd"/>
                              </g>
                              <g id="Grupo_11915" data-name="Grupo 11915" transform="translate(0.316 0.087)">
                                <path id="Trazado_36186" data-name="Trazado 36186" d="M37.591,207.861a.932.932,0,0,1-.509.477,1.581,1.581,0,0,0,.377-.512Z" transform="translate(-37.082 -207.826)" fill-rule="evenodd"/>
                                <path id="Trazado_36187" data-name="Trazado 36187" d="M37.679,207.888a.856.856,0,0,1-.419.493,1.374,1.374,0,0,0,.343-.514Z" transform="translate(-37.046 -207.818)" fill-rule="evenodd"/>
                              </g>
                              <g id="Grupo_11916" data-name="Grupo 11916">
                                <path id="Trazado_36188" data-name="Trazado 36188" d="M37.288,207.783a.8.8,0,0,1-.468.326,1.542,1.542,0,0,0,.342-.355Z" transform="translate(-36.82 -207.754)" fill-rule="evenodd"/>
                                <path id="Trazado_36189" data-name="Trazado 36189" d="M37.4,207.812a.78.78,0,0,1-.406.36,1.331,1.331,0,0,0,.33-.379Z" transform="translate(-36.785 -207.746)" fill-rule="evenodd"/>
                              </g>
                            </g>
                          </g>
                        </g>
                      </g>
                      <path id="Trazado_36190" data-name="Trazado 36190" d="M29.359,203.734a3.064,3.064,0,0,0,.761,1.643c.77.714,2.6.6,3.825,1.9C33.131,204.88,31.8,204.325,29.359,203.734Z" transform="translate(-27.54 -184.879)" fill="#db9669" fill-rule="evenodd"/>
                      <path id="Trazado_36191" data-name="Trazado 36191" d="M30.605,206.524c.161.039.824.367,1.255.467a2.89,2.89,0,0,0,1.726-.107c.067-.028.21-.094.244-.036s.006.14-.082.193c-.026-.008-.083.034-.189.1a2.988,2.988,0,0,1-.8.4,2.064,2.064,0,0,1-2.035-.732C30.686,206.759,30.57,206.516,30.605,206.524Z" transform="translate(-27.286 -184.309)" fill="#ded5d5" fill-rule="evenodd"/>
                      <path id="Trazado_36192" data-name="Trazado 36192" d="M32.976,207.042a.642.642,0,0,1-.442.549,2.026,2.026,0,0,1-1.3-.21,1.3,1.3,0,0,1-.561-.868A3.667,3.667,0,0,0,32.976,207.042Z" transform="translate(-27.273 -184.311)" fill="#062e4a" fill-rule="evenodd"/>
                      <path id="Trazado_36193" data-name="Trazado 36193" d="M31.023,206.889a2.876,2.876,0,0,0,1.514.232,1.418,1.418,0,0,1-.677.137A1.838,1.838,0,0,1,31.023,206.889Z" transform="translate(-27.2 -184.235)" fill="#ded5d5" fill-rule="evenodd"/>
                      <path id="Trazado_36194" data-name="Trazado 36194" d="M30.133,205.215a2.94,2.94,0,0,0,.654,1.711,3.725,3.725,0,0,0,2.9.21,3.434,3.434,0,0,1-1.88-.21,2.167,2.167,0,0,1-1.109-.79c-.12-.4.084-.567,1.034-.343C31.258,205.61,30.5,205.37,30.133,205.215Z" transform="translate(-27.381 -184.577)" fill="#c48c69" fill-rule="evenodd"/>
                      <path id="Trazado_36195" data-name="Trazado 36195" d="M30.118,205.219a3.3,3.3,0,0,0,.672,1.706,3.487,3.487,0,0,0,1.9.372c-.652-.145-1.788-.385-2.151-1.18-.137-.3-.2-.644.531-.5A3.509,3.509,0,0,1,30.118,205.219Z" transform="translate(-27.385 -184.576)" fill="#996c50" fill-rule="evenodd"/>
                      <g id="Grupo_11926" data-name="Grupo 11926" transform="translate(1.719 21.191)">
                        <g id="Grupo_11921" data-name="Grupo 11921" transform="translate(1.257 0.417)">
                          <path id="Trazado_36196" data-name="Trazado 36196" d="M30.648,206.666a1.766,1.766,0,0,0,2.1.941,2.267,2.267,0,0,0,.844-.46c.21-.087.224-.255-.055-.071a3.032,3.032,0,0,1-.8.4A2.069,2.069,0,0,1,30.648,206.666Z" transform="translate(-30.253 -205.888)" fill-rule="evenodd"/>
                          <path id="Trazado_36197" data-name="Trazado 36197" d="M30.329,206.037a1.533,1.533,0,0,0,.418.721,3.108,3.108,0,0,0,3.079.14A3.08,3.08,0,0,1,30.329,206.037Z" transform="translate(-30.318 -206.017)" fill="#785a46" fill-rule="evenodd"/>
                          <path id="Trazado_36198" data-name="Trazado 36198" d="M30.32,206.02a1.63,1.63,0,0,0,.429.742,3.111,3.111,0,0,0,3.079.14,3.585,3.585,0,0,1-2.8-.073A1.765,1.765,0,0,1,30.32,206.02Z" transform="translate(-30.32 -206.02)" fill-rule="evenodd"/>
                        </g>
                        <path id="Trazado_36199" data-name="Trazado 36199" d="M30.6,206.3a1.955,1.955,0,0,1-1.326-.627c.267.5.553.751,1.538.859C30.8,206.512,30.612,206.3,30.6,206.3Z" transform="translate(-29.276 -205.674)" fill-rule="evenodd"/>
                        <path id="Trazado_36200" data-name="Trazado 36200" d="M30.7,206.4a2.455,2.455,0,0,1-1.181-.011,1.716,1.716,0,0,0,1.289.081C30.787,206.463,30.7,206.4,30.7,206.4Z" transform="translate(-29.227 -205.528)" fill-rule="evenodd"/>
                        <path id="Trazado_36201" data-name="Trazado 36201" d="M30.8,206.5a2.129,2.129,0,0,1-1.261.185,1.71,1.71,0,0,0,1.421-.067Z" transform="translate(-29.222 -205.505)" fill-rule="evenodd"/>
                        <path id="Trazado_36202" data-name="Trazado 36202" d="M31.01,206.7a2.035,2.035,0,0,1-1,.435,1.619,1.619,0,0,0,1.161-.358Z" transform="translate(-29.125 -205.465)" fill-rule="evenodd"/>
                        <path id="Trazado_36203" data-name="Trazado 36203" d="M30.879,206.641a2.083,2.083,0,0,1-.879.32,1.476,1.476,0,0,0,.962-.279Z" transform="translate(-29.128 -205.476)" fill-rule="evenodd"/>
                        <path id="Trazado_36204" data-name="Trazado 36204" d="M31.314,206.845a2.017,2.017,0,0,1-.868.537,1.594,1.594,0,0,0,1.03-.478C31.421,206.886,31.367,206.865,31.314,206.845Z" transform="translate(-29.037 -205.435)" fill-rule="evenodd"/>
                        <path id="Trazado_36205" data-name="Trazado 36205" d="M31.167,206.792a2.013,2.013,0,0,1-.756.441,1.434,1.434,0,0,0,.837-.406Z" transform="translate(-29.044 -205.446)" fill-rule="evenodd"/>
                        <path id="Trazado_36206" data-name="Trazado 36206" d="M31.547,206.937a2,2,0,0,1-.7.747,1.266,1.266,0,0,0,.829-.713C31.622,206.967,31.6,206.943,31.547,206.937Z" transform="translate(-28.954 -205.416)" fill-rule="evenodd"/>
                        <path id="Trazado_36207" data-name="Trazado 36207" d="M31.431,206.9a1.955,1.955,0,0,1-.6.553,1.408,1.408,0,0,0,.68-.526Z" transform="translate(-28.958 -205.423)" fill-rule="evenodd"/>
                        <path id="Trazado_36208" data-name="Trazado 36208" d="M31.575,206.977a2.457,2.457,0,0,1-.222.808,1.055,1.055,0,0,0,.36-.768Z" transform="translate(-28.852 -205.408)" fill-rule="evenodd"/>
                        <path id="Trazado_36209" data-name="Trazado 36209" d="M31.8,207.019a1.141,1.141,0,0,0,.228.847,1.63,1.63,0,0,1-.065-.847Q31.884,207.021,31.8,207.019Z" transform="translate(-28.76 -205.399)" fill-rule="evenodd"/>
                        <path id="Trazado_36210" data-name="Trazado 36210" d="M31.684,207a1.8,1.8,0,0,0,.083.79,3.524,3.524,0,0,1,.017-.773C31.754,207.02,31.714,207.006,31.684,207Z" transform="translate(-28.786 -205.402)" fill-rule="evenodd"/>
                        <path id="Trazado_36211" data-name="Trazado 36211" d="M32.062,207.016a1.068,1.068,0,0,0,.3.768,1.6,1.6,0,0,1-.142-.78C32.163,207.009,32.113,207.014,32.062,207.016Z" transform="translate(-28.707 -205.402)" fill-rule="evenodd"/>
                        <path id="Trazado_36212" data-name="Trazado 36212" d="M31.972,207.019a.947.947,0,0,0,.188.726,1.386,1.386,0,0,1-.1-.73C32.028,207.017,32,207.017,31.972,207.019Z" transform="translate(-28.726 -205.4)" fill-rule="evenodd"/>
                        <g id="Grupo_11922" data-name="Grupo 11922" transform="translate(3.575 1.56)">
                          <path id="Trazado_36213" data-name="Trazado 36213" d="M32.333,206.992a1.087,1.087,0,0,0,.408.729,1.63,1.63,0,0,1-.257-.751C32.434,206.977,32.384,206.986,32.333,206.992Z" transform="translate(-32.227 -206.969)" fill-rule="evenodd"/>
                          <path id="Trazado_36214" data-name="Trazado 36214" d="M32.245,207a.966.966,0,0,0,.294.711,1.383,1.383,0,0,1-.208-.72Z" transform="translate(-32.245 -206.964)" fill-rule="evenodd"/>
                        </g>
                        <g id="Grupo_11923" data-name="Grupo 11923" transform="translate(3.892 1.497)">
                          <path id="Trazado_36215" data-name="Trazado 36215" d="M32.6,206.947a1.012,1.012,0,0,0,.449.63,1.614,1.614,0,0,1-.308-.66Z" transform="translate(-32.488 -206.917)" fill-rule="evenodd"/>
                          <path id="Trazado_36216" data-name="Trazado 36216" d="M32.508,206.964a.921.921,0,0,0,.344.621,1.383,1.383,0,0,1-.263-.637Z" transform="translate(-32.508 -206.911)" fill-rule="evenodd"/>
                        </g>
                        <g id="Grupo_11924" data-name="Grupo 11924" transform="translate(4.219 1.411)">
                          <path id="Trazado_36217" data-name="Trazado 36217" d="M32.875,206.885a1,1,0,0,0,.478.588,1.608,1.608,0,0,1-.341-.626Z" transform="translate(-32.759 -206.846)" fill-rule="evenodd"/>
                          <path id="Trazado_36218" data-name="Trazado 36218" d="M32.779,206.906a.91.91,0,0,0,.376.585,1.362,1.362,0,0,1-.3-.606l-.018,0Z" transform="translate(-32.779 -206.838)" fill-rule="evenodd"/>
                        </g>
                        <g id="Grupo_11925" data-name="Grupo 11925" transform="translate(4.481 1.337)">
                          <path id="Trazado_36219" data-name="Trazado 36219" d="M33.085,206.827a.8.8,0,0,0,.461.379,1.388,1.388,0,0,1-.353-.423Z" transform="translate(-32.979 -206.784)" fill-rule="evenodd"/>
                          <path id="Trazado_36220" data-name="Trazado 36220" d="M33,206.859a.744.744,0,0,0,.384.393,1.186,1.186,0,0,1-.32-.418Z" transform="translate(-32.997 -206.774)" fill-rule="evenodd"/>
                        </g>
                      </g>
                      <path id="Trazado_36221" data-name="Trazado 36221" d="M31.6,206.7a4.227,4.227,0,0,0,1.9.226,4.517,4.517,0,0,0-1.787-1.085C30.478,205.579,30.958,206.414,31.6,206.7Z" transform="translate(-27.215 -184.459)" fill="#f1b287" fill-rule="evenodd"/>
                      <g id="Grupo_11928" data-name="Grupo 11928" transform="translate(0 20.215)">
                        <path id="Trazado_36222" data-name="Trazado 36222" d="M30.946,209.078c.132.04.269.078.406.116a11.147,11.147,0,0,0,1.7.347c.535.073.818-.019.945-.3a2.158,2.158,0,0,0-.042-1.172l-.151-.9-.3.07.149.884a2.034,2.034,0,0,1,.063.987c-.06.136-.246.173-.62.122H33.09a11.039,11.039,0,0,1-1.658-.337c-.165-.046-.328-.092-.485-.14A1.2,1.2,0,0,0,30.946,209.078Z" transform="translate(-27.218 -204.393)" fill="#db9669" fill-rule="evenodd"/>
                        <path id="Trazado_36223" data-name="Trazado 36223" d="M31.014,209.566c.09.026.125.042.217.067a11.278,11.278,0,0,0,1.705.347c.535.073.816-.019.944-.3a2.162,2.162,0,0,0-.041-1.171l-.206-1.225-.291.137.193,1.144a2.049,2.049,0,0,1,.063.987c-.061.136-.247.173-.62.122H32.97a10.836,10.836,0,0,1-1.657-.336c-.117-.033-.232-.065-.346-.1A1.08,1.08,0,0,0,31.014,209.566Z" transform="translate(-27.211 -204.369)" fill="#db9669" fill-rule="evenodd"/>
                        <g id="Grupo_11927" data-name="Grupo 11927">
                          <path id="Trazado_36224" data-name="Trazado 36224" d="M30.254,209.141a13.515,13.515,0,0,0,3.348.91c.909.125.935-.26.731-1.293l-.265-1.567c-.2-1.021-.373-1.373-1.163-1.531-1.5-.3-2.866-.491-4.4-.656-.629-.064-.591.1-.409.677C28.537,207.08,29.107,208.588,30.254,209.141Z" transform="translate(-27.822 -204.837)" fill="#ccc8c8" fill-rule="evenodd" opacity="0.5"/>
                          <path id="Trazado_36225" data-name="Trazado 36225" d="M30.214,209.307a11.442,11.442,0,0,0,1.69.578,11.3,11.3,0,0,0,1.7.347c.536.073.818-.019.945-.3a2.158,2.158,0,0,0-.042-1.172l-.264-1.57a3.008,3.008,0,0,0-.387-1.149,1.308,1.308,0,0,0-.9-.5c-.753-.151-1.473-.273-2.2-.379s-1.454-.2-2.222-.278c-.395-.04-.588.011-.667.191-.07.157-.008.366.093.686a11.746,11.746,0,0,0,.829,2.075,3.341,3.341,0,0,0,1.415,1.478Zm1.77.279a11.208,11.208,0,0,1-1.637-.559,3.042,3.042,0,0,1-1.275-1.348,11.506,11.506,0,0,1-.807-2.02,1.193,1.193,0,0,1-.1-.467c.013-.03.116-.033.35-.008.767.083,1.491.172,2.209.277s1.433.228,2.18.377a1.023,1.023,0,0,1,.706.379,2.764,2.764,0,0,1,.335,1.025l.265,1.572a2.034,2.034,0,0,1,.063.988c-.06.136-.246.173-.62.122h-.006A10.873,10.873,0,0,1,31.985,209.586Z" transform="translate(-27.848 -204.863)" fill="#4a4642" fill-rule="evenodd"/>
                        </g>
                      </g>
                      <g id="Grupo_11930" data-name="Grupo 11930" transform="translate(1.545 17.951)">
                        <g id="Grupo_11929" data-name="Grupo 11929" transform="translate(3.056 2.133)">
                          <path id="Trazado_36226" data-name="Trazado 36226" d="M35.9,213.636c-.673.365-1.1-.145-1.844-.09a2.747,2.747,0,0,1,.672-.164,8.4,8.4,0,0,0,1.507-.11C36.282,213.255,36.037,213.561,35.9,213.636Z" transform="translate(-31.182 -203.014)" fill="#db9669" fill-rule="evenodd"/>
                          <path id="Trazado_36227" data-name="Trazado 36227" d="M35.79,206.226c-.833-.32-2.584-2.2-3.225-1.161a5.835,5.835,0,0,1,.948,2.141,10.537,10.537,0,0,1-.495,4.268c-.53,1.616-1.488,2.26-1.332,3.085.128.672,1.343,1.213,3.036.692.865-.265,1.16.054,1.729-.1a.786.786,0,0,0,.582-.82c0-.149-.166-.323-.194-.479C36.345,211.118,36.482,209.6,35.79,206.226Z" transform="translate(-31.669 -204.754)" fill="#f1b287" fill-rule="evenodd"/>
                          <path id="Trazado_36228" data-name="Trazado 36228" d="M33.632,207.433a8.829,8.829,0,0,1-.842,5.676.973.973,0,0,0-.069.851c.3.723,1.606.523,2.345.584a14.936,14.936,0,0,1-1.537.284c-.78.077-1.639-.288-1.747-.774-.083-.378.007-.621.314-1.138A8.674,8.674,0,0,0,33.632,207.433Z" transform="translate(-31.652 -204.207)" fill="#f5bc95" fill-rule="evenodd"/>
                        </g>
                        <path id="Trazado_36229" data-name="Trazado 36229" d="M33.126,205c.142.558.318,1.378.052,1.3a9.281,9.281,0,0,1-1.517-.965c-.766-.543-1.568-.825-2.017-1.137a1.422,1.422,0,0,1-.512-1.213,7.1,7.1,0,0,0,1.55.792A18.29,18.29,0,0,0,33.126,205Z" transform="translate(-29.131 -202.983)" fill="#572f0c" fill-rule="evenodd"/>
                      </g>
                      <g id="Grupo_11932" data-name="Grupo 11932" transform="translate(5.942 17.759)">
                        <path id="Trazado_36230" data-name="Trazado 36230" d="M37.9,210.914c.462.077,1.27.153,2.129.208s1.747.09,2.417.088a1.923,1.923,0,0,0,.977-.154c.22-.126.131-.382,0-.541a.406.406,0,0,1-.048.131c-.1.167-.367.267-.918.253h0c-.658,0-1.552-.033-2.4-.087s-1.649-.13-2.1-.2a2.673,2.673,0,0,1-1.557-1.1,8.137,8.137,0,0,1-.894-1.469,6.17,6.17,0,0,1-.745-1.5c-.008-.023-.211-.02-.086.326a10.712,10.712,0,0,0,1.48,2.838A2.969,2.969,0,0,0,37.9,210.914Z" transform="translate(-32.406 -202.067)" fill="#db9669" fill-rule="evenodd"/>
                        <path id="Trazado_36231" data-name="Trazado 36231" d="M37.8,211.29c.461.077,1.27.153,2.129.208s1.747.09,2.417.087c.677.018,1.036-.1,1.2-.37a.8.8,0,0,0,.1-.408l-.308-.011a.494.494,0,0,1-.058.259c-.25.42-3.087.148-3.331.132-.85-.054-1.647-.13-2.1-.2a2.677,2.677,0,0,1-1.558-1.1,10.419,10.419,0,0,1-1.432-2.753c-.023-.064-.042-.122-.058-.172l-.237-.007c.031.076.067.16.1.255a10.361,10.361,0,0,0,1.381,2.869A2.966,2.966,0,0,0,37.8,211.29Z" transform="translate(-32.419 -201.98)" fill="#e8a476" fill-rule="evenodd"/>
                        <g id="Grupo_11931" data-name="Grupo 11931">
                          <path id="Trazado_36232" data-name="Trazado 36232" d="M37.842,211.024a36.924,36.924,0,0,0,4.524.293c1.227.033,1.27-.359,1.019-1.378l-.494-2c-.249-1.007-.474-1.344-1.539-1.42-2.021-.146-3.866-.2-5.939-.2-.849,0-.886.193-.682.757C35.221,208.426,36.3,210.768,37.842,211.024Z" transform="translate(-32.405 -202.111)" fill="#ccc8c8" fill-rule="evenodd" opacity="0.5"/>
                          <path id="Trazado_36233" data-name="Trazado 36233" d="M37.843,211.2c.462.077,1.27.153,2.129.208s1.747.09,2.417.088c.678.017,1.036-.1,1.2-.371a1.67,1.67,0,0,0-.028-1.2l-.494-2a2.329,2.329,0,0,0-.5-1.132,1.731,1.731,0,0,0-1.173-.406c-1.019-.073-1.987-.123-2.956-.154s-1.954-.045-2.994-.048c-.479,0-.737.066-.861.229s-.088.4.031.736a10.7,10.7,0,0,0,1.48,2.84,2.969,2.969,0,0,0,1.752,1.211Zm2.15-.1c-.851-.055-1.649-.13-2.1-.2a2.677,2.677,0,0,1-1.558-1.1,10.383,10.383,0,0,1-1.432-2.753c-.084-.232-.124-.381-.076-.443s.241-.106.612-.106c1.033,0,2.011.018,2.985.049s1.941.079,2.943.153a1.464,1.464,0,0,1,.977.316,2.087,2.087,0,0,1,.423.986l.494,2c.116.471.167.791.063.966s-.377.234-.926.22h0C41.734,211.192,40.839,211.157,39.993,211.1Z" transform="translate(-32.431 -202.137)" fill="#4a4642" fill-rule="evenodd"/>
                          <path id="Trazado_36234" data-name="Trazado 36234" d="M35.14,207.165a.181.181,0,0,0,.041-.36l-2.2-.255a.181.181,0,1,0-.041.36Z" transform="translate(-32.782 -202.063)" fill="#4a4642" fill-rule="evenodd"/>
                          <path id="Trazado_36235" data-name="Trazado 36235" d="M41.368,207.966c-.057.045.129,1.046.347.873l9.063-5.294.517-.721-.21.116Z" transform="translate(-31.031 -202.824)" fill="#4a4642" fill-rule="evenodd"/>
                          <path id="Trazado_36236" data-name="Trazado 36236" d="M41.435,207.795c-.057.045-.028.421.189.248l6.821-3.9c.064-.039.046-.081-.007-.059Z" transform="translate(-31.02 -202.568)" fill="#e6e6e6" fill-rule="evenodd"/>
                        </g>
                      </g>
                    </g>
                  </g>
                </g>
                <g id="Grupo_11937" data-name="Grupo 11937" transform="translate(2.018)">
                  <path id="Trazado_36237" data-name="Trazado 36237" d="M57.557,221.84c5.3-4.518,5.959-16.407,3.453-23.224a27.636,27.636,0,0,0-5.714-9.038c-3.327-3.33-8.285-4.735-14.869-2.571-1.968.647,4.223.379,2.071,2.324l7.96,16.816C52.665,214.565,52.132,215.036,57.557,221.84Z" transform="translate(-27.377 -185.806)" fill="#361d07" fill-rule="evenodd"/>
                  <path id="Trazado_36238" data-name="Trazado 36238" d="M29.524,197.55c11.218,13.032,24.991,11.416,26,14.7.785,2.545,4.535-3.3,5.1-5.953a17.009,17.009,0,0,0-9.355-18.548C42.483,183.688,31.179,189.946,29.524,197.55Z" transform="translate(-29.524 -185.704)" fill="#361d07" fill-rule="evenodd"/>
                  <path id="Trazado_36239" data-name="Trazado 36239" d="M55.835,216.393c6.222-6.346,8.168-14.282,5.426-21.123.026.157.051.316.072.476-1.287-2.093-3.171-5-5.773-5.609,2.124,1.639,5.027,5.67,5.448,9.28-1.4-3.419-2.912-4.691-6.069-7.321a27.042,27.042,0,0,1,4.426,8.135c-1.415-2.4-4.8-5.733-6.615-6.239a13.074,13.074,0,0,1,5.14,9.39c-1.256-3.242-4.7-7.185-7.448-7.723,1.57,1.133,4.1,4.2,4.462,6.384-2.119-2.342-2.278-2.9-5.677-4.794a17.988,17.988,0,0,1,3.849,5.635c-1.665-1.525-3.037-2.971-5.143-4.6,1,1.24,3.851,5.515,4.07,7.024-.695-.751-5.939-3.237-8.171-4.151,2.586,2.368,5.472,4.863,7.733,5.713.383.428-8.332-.5-19.2-6.7,7.753,7.364,13.663,6.5,20.844,9.655l.8,3.042A10.2,10.2,0,0,0,55.835,216.393Z" transform="translate(-28.943 -184.956)" fill="#241304" fill-rule="evenodd"/>
                  <g id="Grupo_11936" data-name="Grupo 11936" transform="translate(23.742 18.41)">
                    <path id="Trazado_36240" data-name="Trazado 36240" d="M50.86,201.637c2.991-1.894,3.917,1.864,3.961,4.267.03,1.651-1.292,1.846-1.463,3.2a3.043,3.043,0,0,1-2.169,2.779c-2,.423-1.478-2.819-1.523-4.046C48.974,205.973,48.961,202.838,50.86,201.637Z" transform="translate(-49.239 -201.122)" fill="#e8a476" fill-rule="evenodd"/>
                    <path id="Trazado_36241" data-name="Trazado 36241" d="M50.3,206.218c.326-1.714.157-3.773,2.427-4.067C50.833,202.772,50.824,204.627,50.3,206.218Z" transform="translate(-49.021 -200.912)" fill="#db9669" fill-rule="evenodd"/>
                  </g>
                  <path id="Trazado_36242" data-name="Trazado 36242" d="M58.151,195.551c2.576,4.151,4.2,16.145-2.723,26.211-.611-1.414-2.8-4.906-3.905-6.957C58.245,204.988,57,208.664,58.151,195.551Z" transform="translate(-25.031 -183.85)" fill="#241304" fill-rule="evenodd"/>
                  <path id="Trazado_36243" data-name="Trazado 36243" d="M29.53,197.717c1.315-9.818,18.244-15.1,25.83-9.762a18.706,18.706,0,0,0-11.188-.891c2.531-.2,7.757.623,10.927,3.785a16.251,16.251,0,0,0-11.491-2.241c4.169.252,5.37,1.083,8.317,3.055-3.159-1.191-6.334-2.163-9.569-1.963,3.159.592,4.514,1.354,6.983,3.744-3.933-1.784-4.387-2.745-8.785-2.458a27.112,27.112,0,0,1,7.506,4.085,51.506,51.506,0,0,0-9.107-2.4,31.052,31.052,0,0,1,6.423,3.911,29.639,29.639,0,0,0-8.71-2.422,33.273,33.273,0,0,1,9.243,5.325,60.561,60.561,0,0,0-9.991-3.855c2.572,1.881,4.28,2.9,6.882,4.769a57.755,57.755,0,0,1-9.913-4.16c2.25,1.653,8.891,6.253,11.5,7.681C41.553,203,34.157,199,31.917,197.508a17.458,17.458,0,0,0,6.664,5.464A25.027,25.027,0,0,1,29.53,197.717Z" transform="translate(-29.523 -185.834)" fill="#4a2b12" fill-rule="evenodd"/>
                  <path id="Trazado_36244" data-name="Trazado 36244" d="M34.762,200.991C53.1,216.234,49.555,253.3,52.09,268.129c17.794-15.715,16.579-49.167,10.626-70.533-1.133-.747-5.619,4.71-6.693,4.263l-2.478-1-1.58,3.579-3.167-.951,1.88,1.822-7.286-1.36Z" transform="translate(-28.454 -183.446)" fill="#241304" fill-rule="evenodd"/>
                </g>
              </g>
            </g>
          </g>
        </g>
        <g id="Grupo_11947" data-name="Grupo 11947" transform="translate(0 89.627)">
          <g id="Grupo_11942" data-name="Grupo 11942" transform="translate(1.168 58.61)">
            <path id="Trazado_36245" data-name="Trazado 36245" d="M-90.32,308.962l-10.582-.033c0,.224.023,91.2.067,91.4.845,3.855,9.427,3.9,10.42.134C-90.353,400.233-90.32,309.223-90.32,308.962Z" transform="translate(100.902 -308.929)" fill="#333647" fill-rule="evenodd"/>
            <path id="Trazado_36246" data-name="Trazado 36246" d="M-96.335,308.943l-4.567-.014c0,.224.023,91.2.067,91.4.388,1.764,2.394,2.73,4.553,2.9C-96.316,389.134-96.334,315.3-96.335,308.943Z" transform="translate(100.902 -308.929)" fill="#1f202b" fill-rule="evenodd"/>
            <path id="Trazado_36247" data-name="Trazado 36247" d="M-92.842,309.428l-2.222-.412c0,.067,0,93.483.01,93.544a4.065,4.065,0,0,0,2.388-1.416C-92.648,401.073-92.842,309.509-92.842,309.428Z" transform="translate(102.094 -308.911)" fill="#5e627d" fill-rule="evenodd"/>
            <path id="Trazado_36248" data-name="Trazado 36248" d="M-99.96,308.982l1.45.291c0,9.31,0,92.514-.011,92.572a2.172,2.172,0,0,1-1.616-1.148Z" transform="translate(101.058 -308.918)" fill="#333647" fill-rule="evenodd"/>
          </g>
          <g id="Grupo_11946" data-name="Grupo 11946">
            <g id="Grupo_11943" data-name="Grupo 11943" transform="translate(256.279 111.324)">
              <path id="Trazado_36249" data-name="Trazado 36249" d="M121.521,352.734l-10.582-.033c0,.224.023,91.2.067,91.4.847,3.855,9.427,3.9,10.42.134C121.488,444.007,121.521,353,121.521,352.734Z" transform="translate(-110.939 -352.702)" fill="#333647" fill-rule="evenodd"/>
              <path id="Trazado_36250" data-name="Trazado 36250" d="M115.506,352.716l-4.567-.014c0,.224.023,91.2.067,91.4.388,1.764,2.394,2.73,4.553,2.9C115.526,432.907,115.507,359.076,115.506,352.716Z" transform="translate(-110.939 -352.702)" fill="#1f202b" fill-rule="evenodd"/>
              <path id="Trazado_36251" data-name="Trazado 36251" d="M119,353.2l-2.222-.413c0,.069,0,93.484.01,93.545a4.057,4.057,0,0,0,2.388-1.417C119.193,444.846,119,353.282,119,353.2Z" transform="translate(-109.747 -352.684)" fill="#5e627d" fill-rule="evenodd"/>
              <path id="Trazado_36252" data-name="Trazado 36252" d="M111.881,352.756l1.45.29c0,9.311,0,92.516-.011,92.572a2.169,2.169,0,0,1-1.616-1.148Z" transform="translate(-110.783 -352.691)" fill="#333647" fill-rule="evenodd"/>
            </g>
            <g id="Grupo_11944" data-name="Grupo 11944" transform="translate(175.299 158.003)">
              <path id="Trazado_36253" data-name="Trazado 36253" d="M54.275,391.5l-10.581-.033c0,.223.023,91.2.067,91.4.845,3.855,9.426,3.9,10.42.135C54.242,482.768,54.275,391.758,54.275,391.5Z" transform="translate(-43.694 -391.464)" fill="#333647" fill-rule="evenodd"/>
              <path id="Trazado_36254" data-name="Trazado 36254" d="M48.261,391.477l-4.567-.013c0,.223.023,91.2.067,91.4.387,1.764,2.394,2.731,4.552,2.9C48.28,471.669,48.262,397.837,48.261,391.477Z" transform="translate(-43.694 -391.464)" fill="#1f202b" fill-rule="evenodd"/>
              <path id="Trazado_36255" data-name="Trazado 36255" d="M51.753,391.963l-2.222-.413c0,.069,0,93.484.011,93.545a4.061,4.061,0,0,0,2.388-1.417C51.947,483.608,51.753,392.043,51.753,391.963Z" transform="translate(-42.502 -391.446)" fill="#5e627d" fill-rule="evenodd"/>
              <path id="Trazado_36256" data-name="Trazado 36256" d="M44.635,391.517l1.45.29c0,9.311,0,92.516-.01,92.574a2.169,2.169,0,0,1-1.616-1.149Z" transform="translate(-43.538 -391.453)" fill="#333647" fill-rule="evenodd"/>
            </g>
            <g id="Grupo_11945" data-name="Grupo 11945">
              <path id="Trazado_36257" data-name="Trazado 36257" d="M-11.594,260.46l-13.083,7.533c-35.275,20.48-25.663,14.252-60.935,34.737l-6.563,3.808a74.306,74.306,0,0,0-7.811,5.064,6.555,6.555,0,0,0-1.861,4.953v1.706a7.111,7.111,0,0,0,3.12,6.232C-54.6,349.943,32.76,400.53,76.926,426.015c43.994-25.547,43.123-24.349,87.088-49.943a4.675,4.675,0,0,0,.66-.453c.065-.057.13-.132.208-.189a7.027,7.027,0,0,0,2.058-3.619c0-.019.012-.029.012-.048a16.849,16.849,0,0,0,.208-3.616,7.7,7.7,0,0,0-3.94-6.705l-12.1-6.986C112.4,332.091,31,283.8-7.719,261.444-8.957,260.73-10.754,259.861-11.594,260.46Z" transform="translate(101.877 -260.26)" fill="#cacad9" fill-rule="evenodd"/>
              <path id="Trazado_36258" data-name="Trazado 36258" d="M135.774,346.507l-14.8,5.6L46.614,397.655v4.091c-.013.2-.013.4-.013.6l90.208-51.76A7.97,7.97,0,0,0,135.774,346.507Z" transform="translate(132.198 -242.644)" fill="#e8e8f7" fill-rule="evenodd"/>
              <path id="Trazado_36259" data-name="Trazado 36259" d="M-100.629,303.442a8.01,8.01,0,0,0-1.243,4.351l178.8,103.353c.013-.783.013-1.593.013-2.394v-2.669L-94.362,305.71Z" transform="translate(101.872 -251.44)" fill="#d8d8e6" fill-rule="evenodd"/>
              <path id="Trazado_36260" data-name="Trazado 36260" d="M76.73,405.1v-3.46l-153.76-91.179-19.7-9.08a4.741,4.741,0,0,0-4.105,2.481L76.73,406.5v-1.4Z" transform="translate(102.083 -251.861)" fill="#e8e8f7" fill-rule="evenodd"/>
              <path id="Trazado_36261" data-name="Trazado 36261" d="M46.612,397.225v.9l89.159-51.148a5.07,5.07,0,0,0-4.246-2.748h-.013l-14.817,6.215L46.612,392.89v4.335Z" transform="translate(132.201 -243.11)" fill="#f2f2fc" fill-rule="evenodd"/>
              <path id="Trazado_36262" data-name="Trazado 36262" d="M-11.457,260.606c-42.375,24.625-43.6,24.484-85.974,49.1C-12.462,358.765-8.936,360.918,76.033,409.97c42.361-24.621,42.525-24.042,84.9-48.665C75.964,312.25,73.5,309.659-11.457,260.606Z" transform="translate(102.779 -260.189)" fill="#f9f9fe" fill-rule="evenodd"/>
            </g>
          </g>
        </g>
        <g id="Grupo_11948" data-name="Grupo 11948" transform="translate(91.502 147.43)">
          <path id="Trazado_36263" data-name="Trazado 36263" d="M40.933,308.259-25.89,347.092l47.629,27.5,66.822-38.833Z" transform="translate(25.89 -308.259)" fill="#e8e8f7" fill-rule="evenodd"/>
          <path id="Trazado_36264" data-name="Trazado 36264" d="M-7.226,348.858l52.676-31.116,11.538,6.876-19.229,12.47-6.992.233v4.545L6.526,357.521Z" transform="translate(29.702 -306.322)" fill="none" stroke="#935a5a" stroke-miterlimit="10" stroke-width="0.5" stroke-dasharray="1" fill-rule="evenodd"/>
          <path id="Trazado_36287" data-name="Trazado 36287" d="M-7.226,337.125l32.813-19.383,7.187,4.283L20.8,329.793l-4.356.145v2.831l-15.1,9.752Z" transform="matrix(0.998, -0.07, 0.07, 0.998, 61.704, -273.627)" fill="#945c5c" fill-rule="evenodd"/>
          <path id="Trazado_36288" data-name="Trazado 36288" d="M-7.226,337.125l32.813-19.383,7.187,4.283L20.8,329.793l-4.356.145v2.831l-15.1,9.752Z" transform="matrix(0.998, -0.07, 0.07, 0.998, 80.32, -273.627)" fill="#945c5c" fill-rule="evenodd"/>
        </g>
        <path id="Trazado_36265" data-name="Trazado 36265" d="M-77,338.456l70.395,40.523-.006-15.552c.037-2.518.232-3.03,2.268-4.335l79.071-45.374L4.339,273.2l-79.477,45.6c-1.443.977-1.83,3.209-1.775,4.405Z" transform="translate(106.952 -167.99)" fill="#733b36" fill-rule="evenodd"/>
        <g id="Grupo_11952" data-name="Grupo 11952" transform="translate(114.328 80.375)">
          <g id="Grupo_11951" data-name="Grupo 11951" transform="translate(0 25.938)">
            <g id="Grupo_11949" data-name="Grupo 11949" transform="translate(0 16.44)">
              <path id="Trazado_36266" data-name="Trazado 36266" d="M21.685,287.767c-10.837,1.454-21.392,3.471-28.62,6.977l17.452-1.44,11.916-4.391Z" transform="translate(6.935 -287.767)" fill="#262626" fill-rule="evenodd"/>
              <path id="Trazado_36267" data-name="Trazado 36267" d="M21.685,287.767c-10.837,1.454-21.392,3.471-28.62,6.977C.4,292,10.216,289.787,21.78,288.026Z" transform="translate(6.935 -287.767)" fill="#707070" fill-rule="evenodd"/>
            </g>
            <path id="Trazado_36268" data-name="Trazado 36268" d="M20.073,274.115a8.343,8.343,0,0,1-4.152,4.377c-3.307,1.651-4.5,3.708-5.323,7.2-.425,1.811-.79,4.186-1.2,7.407-.453,2.661.467,4.163,1.682,4.8,3.15,1.649,6.472-.584,9.339-1.846-4.137-2.472,2.218-7.811,1.8-12.971a17.667,17.667,0,0,1,5.357-5.612Z" transform="translate(10.247 -274.115)" fill="#f1b287" fill-rule="evenodd"/>
            <path id="Trazado_36269" data-name="Trazado 36269" d="M10.253,286.1c-.288,1.547-.561,3.429-.856,5.75-.453,2.661.467,4.163,1.682,4.8,3.15,1.649,6.416-.584,9.285-1.846-1.127-1.741-1.4-3.206.4-7.294-3.384,0-2.034-1.074-1.944-3.712a8.207,8.207,0,0,0-.859-3.587c-.155,3.481-1.186,3.929-2.707,4.693-2.676,1.343-3.4,1.948-4.725,3.578Z" transform="translate(10.247 -272.87)" fill="#e8a476" fill-rule="evenodd"/>
            <path id="Trazado_36270" data-name="Trazado 36270" d="M10.253,285.1c-.288,1.547-.561,3.429-.856,5.75-.453,2.661.467,4.163,1.682,4.8.118.063.238.119.359.17l.732-2.728a1.054,1.054,0,0,1-.533-.19c-.349-.425.442-3.99.928-7.424Z" transform="translate(10.247 -271.871)" fill="#f1b287" fill-rule="evenodd"/>
            <path id="Trazado_36271" data-name="Trazado 36271" d="M15.751,294.759c.507-.259.543-3.536.888-5.733.216-1.375.729-2.331,2.172-2.286-.23,2.717-.331,4.962-.624,6.451-.241,1.23-1.794,1.782-3.066,2.24Z" transform="translate(11.44 -271.536)" fill="#f1b287" fill-rule="evenodd"/>
            <path id="Trazado_36272" data-name="Trazado 36272" d="M8.991,286.811A16.507,16.507,0,0,1,6.8,290.856c3.561,1.989,4.682-1.21,6.522-3.862,2.913-1.009,6.19-2.693,5.18-6.142-.666-2.27-2.3-2.514-3.839-1.877-1.438.6-2.542,2.442-3.438,3.91A44.194,44.194,0,0,0,8.991,286.811Z" transform="translate(9.741 -273.185)" fill="#f1b287" fill-rule="evenodd"/>
            <path id="Trazado_36273" data-name="Trazado 36273" d="M9.829,284.916c-.5,1.142-2.234,4.406-3.024,5.939,2.394.131,2.934-2.194,4.774-4.847,2.111-2.429,7.027-3.055,6.928-5.157a2.92,2.92,0,0,0-1.455-1.969,2.94,2.94,0,0,0-2.384.092,6.305,6.305,0,0,0-2.48,2.393C11.311,282.657,10.525,283.917,9.829,284.916Z" transform="translate(9.741 -273.185)" fill="#f5bc95" fill-rule="evenodd"/>
            <path id="Trazado_36274" data-name="Trazado 36274" d="M17.321,293.949c.464-.236.5-3.235.812-5.245.2-1.26.666-2.134,1.987-2.091-.21,2.484-.3,4.539-.57,5.9-.22,1.124-1.643,1.629-2.8,2.047Z" transform="translate(11.772 -271.562)" fill="#f1b287" fill-rule="evenodd"/>
            <g id="Grupo_11950" data-name="Grupo 11950" transform="translate(20.438 15.818)">
              <path id="Trazado_36275" data-name="Trazado 36275" d="M14.5,288.153c.086-.424,1.572-1.232,2.258-.759.2.45.531,7.2-.778,7.769a8.061,8.061,0,0,1-3.111.67C13.22,294.479,14.182,289.742,14.5,288.153Z" transform="translate(-9.457 -287.25)" fill="#f1b287" fill-rule="evenodd"/>
              <path id="Trazado_36276" data-name="Trazado 36276" d="M11.119,292.2a5.954,5.954,0,0,0,.7.235c.574.135.674.135.809-.891a22.951,22.951,0,0,1,.277-2.321,1.9,1.9,0,0,1,2.216-1.261,32.251,32.251,0,0,1-.383,6.61,1.208,1.208,0,0,1-1.289,1.114,4.49,4.49,0,0,1-3.084-1.02,1.492,1.492,0,0,1-.3-1.156C10.211,292.827,11.1,292.239,11.119,292.2Z" transform="translate(-10.036 -287.109)" fill="#f1b287" fill-rule="evenodd"/>
            </g>
          </g>
          <path id="Trazado_36277" data-name="Trazado 36277" d="M15.612,282.293c2.517-.353,5.477,4.2,5.517,5.009,8.856-8.336,17.771-13.014,25.372-22.685.119-.153-4.027-10.761-5.864-12.01C31.873,258.22,21.891,274.424,15.612,282.293Z" transform="translate(11.54 -252.571)" fill="#dbd4d4" fill-rule="evenodd"/>
          <path id="Trazado_36278" data-name="Trazado 36278" d="M18.817,284.567a7.631,7.631,0,0,1,1.657,2.741c8.875-8.354,17.811-13.036,25.423-22.75.016-.02-2.736-9.838-5.873-11.981-.013-.008-.182.146-.2.136.794,1.133,3.844,7.186,3.32,7.586C37.565,266.615,28.011,275.969,18.817,284.567Z" transform="translate(12.195 -252.577)" fill="#c7c1c1" fill-rule="evenodd"/>
          <path id="Trazado_36279" data-name="Trazado 36279" d="M15.612,282.189a3.983,3.983,0,0,1,3,1.364c8.376-8.9,15.274-14.956,23.761-24.027a19.852,19.852,0,0,1-2.669-6.41c-.786.548-2.321,1.832-2.93,2.386C29.055,262.533,21.019,275.414,15.612,282.189Z" transform="translate(11.54 -252.467)" fill="#e8e3e3" fill-rule="evenodd"/>
        </g>
        <g id="Grupo_11954" data-name="Grupo 11954" transform="translate(156.884 48.808)">
          <g id="Grupo_11953" data-name="Grupo 11953" transform="translate(0 76.664)">
            <path id="Trazado_36280" data-name="Trazado 36280" d="M39.8,300.677c-2.589,2.038-9.048,5.147-10.414,4.415l-.9-1.525c-.944-1.251,6.088-9.987,7.424-11.739,1.964-2.576,4.976-1.959,8.311-.809,2.883,1,3.481.482,7.818-.666l3.037,4.67c-2.571,5.909-4.671,8.029-9.529,5.674C44.605,300.238,41.522,299.323,39.8,300.677Z" transform="translate(-28.403 -290.025)" fill="#f1b287" fill-rule="evenodd"/>
            <path id="Trazado_36281" data-name="Trazado 36281" d="M39.693,300.065c-2.589,2.038-9.048,5.147-10.414,4.415l-.344-.586a88.226,88.226,0,0,0,10.8-7.257c1.72-1.354,4.8-.437,5.749.021,4.25,2.059,6.39.7,8.579-3.636l.9,1.39c-2.571,5.909-4.671,8.028-9.529,5.674C44.5,299.626,41.414,298.711,39.693,300.065Z" transform="translate(-28.294 -289.413)" fill="#e8a476" fill-rule="evenodd"/>
          </g>
          <path id="Trazado_36282" data-name="Trazado 36282" d="M73.089,226.441c-8.24,1.015-8.567,21.132-11.837,38.843L43.875,302.352c-1.169,4.194,5.936,9.14,9.682,6.489l20.714-40.234c1.938-7.181,4.067-13.523,5.666-20.808C81.305,241.564,83.974,225.1,73.089,226.441Z" transform="translate(-25.269 -226.364)" fill="#e8e3e3" fill-rule="evenodd"/>
          <path id="Trazado_36283" data-name="Trazado 36283" d="M73.082,226.428c-8.24,1.015-7.911,21.5-11.18,39.208l-18.117,37.4a5.044,5.044,0,0,0,1.317,3.536c7.946-12.327,17.878-31.429,21.51-38.484C66.672,267.862,71.562,241.021,73.082,226.428Z" transform="translate(-25.262 -226.351)" fill="#f6f5f5" fill-rule="evenodd"/>
          <path id="Trazado_36284" data-name="Trazado 36284" d="M68.045,267.444c-2.436,5.788-13.614,28.9-20.917,41.251,1.921.991,4.137,1.246,5.738.112l20.714-40.234c1.938-7.181,4.067-13.523,5.666-20.808,1.227-5.59,3.5-19.405-3.892-21.233C73.817,234.325,68.484,266.4,68.045,267.444Z" transform="translate(-24.578 -226.33)" fill="#dbd4d4" fill-rule="evenodd"/>
        </g>
        <path id="Trazado_36285" data-name="Trazado 36285" d="M2.316,293.561l-54.542,34.714,24.24,14.218,53.026-35.778Z" transform="translate(112.012 -163.831)" fill="none" stroke="#935a5a" stroke-miterlimit="10" stroke-width="0.5" fill-rule="evenodd"/>
        <path id="Trazado_36286" data-name="Trazado 36286" d="M-35.774,320.961l9.09,5.827,18.064-12.47.893-6.06-8.236.233Z" transform="translate(115.373 -160.829)" fill="none" stroke="#935a5a" stroke-miterlimit="10" stroke-width="0.5"/>
      </g>
    </g>
  </g>
</svg>
